<?xml version="1.0" encoding="utf-8"?>
<svg xmlns="http://www.w3.org/2000/svg" viewBox="0 0 900 400" width="900" height="400">
  <style>
    .card-bg { fill: #f8f9fa; stroke: #e9ecef; stroke-width: 1; }
    .title-lg { font-size: 18px; font-weight: 700; fill: #1a202c; font-family: -apple-system, BlinkMacSystemFont, 'Segoe UI', Helvetica, Arial, sans-serif; }
    .title-sm { font-size: 16px; font-weight: 700; fill: #1a202c; font-family: -apple-system, BlinkMacSystemFont, 'Segoe UI', Helvetica, Arial, sans-serif; }
    .desc { font-size: 13px; fill: #718096; font-family: -apple-system, BlinkMacSystemFont, 'Segoe UI', Helvetica, Arial, sans-serif; }
    .desc-sm { font-size: 12px; fill: #718096; font-family: -apple-system, BlinkMacSystemFont, 'Segoe UI', Helvetica, Arial, sans-serif; }
  </style>
  <rect width="900" height="400" fill="#ffffff"/>
  <defs>
    <clipPath id="c1"><rect x="20" y="38" width="270" height="155" rx="10"/></clipPath>
    <clipPath id="c2"><rect x="315" y="38" width="270" height="155" rx="10"/></clipPath>
    <clipPath id="c3"><rect x="610" y="38" width="270" height="155" rx="10"/></clipPath>
    <clipPath id="c4"><rect x="20" y="218" width="270" height="145" rx="10"/></clipPath>
    <clipPath id="c5"><rect x="315" y="218" width="270" height="145" rx="10"/></clipPath>
    <clipPath id="c6"><rect x="610" y="218" width="270" height="145" rx="10"/></clipPath>
  </defs>

  <!-- Card 1: Verification-First -->
  <g clip-path="url(#c1)">
    <rect x="20" y="38" width="270" height="155" rx="10" class="card-bg"/>
    <rect x="20" y="38" width="6" height="155" fill="#667eea"/>
  </g>
  <text x="46" y="80" class="title-lg">Verification-First</text>
  <text x="46" y="108" class="desc">Test-verify-fix loop</text>
  <text x="46" y="126" class="desc">with bounded retries</text>

  <!-- Card 2: Self-Improving -->
  <g clip-path="url(#c2)">
    <rect x="315" y="38" width="270" height="155" rx="10" class="card-bg"/>
    <rect x="315" y="38" width="6" height="155" fill="#4facfe"/>
  </g>
  <text x="341" y="80" class="title-lg">Self-Improving</text>
  <text x="341" y="108" class="desc">Learns from corrections</text>
  <text x="341" y="126" class="desc">Cross-project experience</text>

  <!-- Card 3: Multi-Model -->
  <g clip-path="url(#c3)">
    <rect x="610" y="38" width="270" height="155" rx="10" class="card-bg"/>
    <rect x="610" y="38" width="6" height="155" fill="#f093fb"/>
  </g>
  <text x="636" y="80" class="title-lg">Multi-Model</text>
  <text x="636" y="108" class="desc">Claude, GPT, GLM with</text>
  <text x="636" y="126" class="desc">routing &amp; fallback</text>
  <!-- Card 4: Secure by Default -->
  <g clip-path="url(#c4)">
    <rect x="20" y="218" width="270" height="145" rx="10" class="card-bg"/>
    <rect x="20" y="218" width="6" height="145" fill="#fa709a"/>
  </g>
  <text x="46" y="256" class="title-sm">Secure by Default</text>
  <text x="46" y="280" class="desc-sm">Permission modes, sandbox,</text>
  <text x="46" y="296" class="desc-sm">audit trail</text>

  <!-- Card 5: 25+ Built-in Tools -->
  <g clip-path="url(#c5)">
    <rect x="315" y="218" width="270" height="145" rx="10" class="card-bg"/>
    <rect x="315" y="218" width="6" height="145" fill="#30cfd0"/>
  </g>
  <text x="341" y="256" class="title-sm">25+ Built-in Tools</text>
  <text x="341" y="280" class="desc-sm">Read, Edit, Grep, Bash,</text>
  <text x="341" y="296" class="desc-sm">Git, Verify</text>

  <!-- Card 6: Measurable -->
  <g clip-path="url(#c6)">
    <rect x="610" y="218" width="270" height="145" rx="10" class="card-bg"/>
    <rect x="610" y="218" width="6" height="145" fill="#fee140"/>
  </g>
  <text x="636" y="256" class="title-sm">Measurable</text>
  <text x="636" y="280" class="desc-sm">Cost tracking, benchmarks,</text>
  <text x="636" y="296" class="desc-sm">session replay</text>
</svg>
